HIERARCHY
ROOT Hips
{
	OFFSET -3.958830 18.904000 13.208200
	CHANNELS 6 Xposition Yposition Zposition Zrotation Yrotation Xrotation 
	JOINT LHipJoint
	{
		OFFSET 0.000000 0.000000 0.000000
		CHANNELS 3 Zrotation Yrotation Xrotation
		JOINT LeftUpLeg
		{
			OFFSET 1.800000 -1.400000 0.085000
			CHANNELS 3 Zrotation Yrotation Xrotation
			JOINT LeftLeg
			{
				OFFSET 2.215000 -6.000000 0.000000
				CHANNELS 3 Zrotation Yrotation Xrotation
				JOINT LeftFoot
				{
					OFFSET 2.500000 -6.900000 0.000000
					CHANNELS 3 Zrotation Yrotation Xrotation
					JOINT LeftToeBase
					{
						OFFSET 0.200000 -0.500000 1.950000
						CHANNELS 3 Zrotation Yrotation Xrotation
						End Site
						{
							OFFSET 0.000000 0.000000 0.000000
						}
					}
				}
			}
		}
	}
	JOINT RHipJoint
	{
		OFFSET 0.000000 0.000000 0.000000
		CHANNELS 3 Zrotation Yrotation Xrotation
		JOINT RightUpLeg
		{
			OFFSET -1.800000 -1.400000 0.085000
			CHANNELS 3 Zrotation Yrotation Xrotation
			JOINT RightLeg
			{
				OFFSET -2.215000 -6.000000 0.000000
				CHANNELS 3 Zrotation Yrotation Xrotation
				JOINT RightFoot
				{
					OFFSET -2.500000 -6.900000 0.000000
					CHANNELS 3 Zrotation Yrotation Xrotation
					JOINT RightToeBase
					{
						OFFSET -0.200000 -0.500000 1.950000
						CHANNELS 3 Zrotation Yrotation Xrotation
						End Site
						{
							OFFSET 0.000000 0.000000 0.000000
						}
					}
				}
			}
		}
	}
	JOINT LowerBack
	{
		OFFSET 0.000000 0.000000 0.000000
		CHANNELS 3 Zrotation Yrotation Xrotation
		JOINT Spine
		{
			OFFSET -0.087000 1.940000 -0.288900
			CHANNELS 3 Zrotation Yrotation Xrotation
			JOINT Spine1
			{
				OFFSET 0.000000 1.950000 0.060000
				CHANNELS 3 Zrotation Yrotation Xrotation
				JOINT Neck
				{
					OFFSET 0.000000 0.000000 0.000000
					CHANNELS 3 Zrotation Yrotation Xrotation
					JOINT Neck1
					{
						OFFSET 0.000000 1.600000 0.340000
						CHANNELS 3 Zrotation Yrotation Xrotation
						JOINT Head
						{
							OFFSET 0.000000 1.667000 -0.240000
							CHANNELS 3 Zrotation Yrotation Xrotation
							End Site
							{
								OFFSET 0.000000 0.000000 0.000000
							}
						}
					}
				}
				JOINT LeftShoulder
				{
					OFFSET 0.000000 0.000000 0.000000
					CHANNELS 3 Zrotation Yrotation Xrotation
					JOINT LeftArm
					{
						OFFSET 2.700000 1.550000 -0.730000
						CHANNELS 3 Zrotation Yrotation Xrotation
						JOINT LeftForeArm
						{
							OFFSET 5.450000 0.000000 0.000000
							CHANNELS 3 Zrotation Yrotation Xrotation
							JOINT LeftHand
							{
								OFFSET 3.450000 0.000000 0.000000
								CHANNELS 3 Zrotation Yrotation Xrotation
								JOINT LeftHandIndex1
								{
									OFFSET 0.750000 0.000000 0.000000
									CHANNELS 3 Zrotation Yrotation Xrotation
									End Site
									{
										OFFSET 0.000000 0.000000 0.000000
									}
								}
							}
						}
					}
				}
				JOINT RightShoulder
				{
					OFFSET 0.000000 0.000000 0.000000
					CHANNELS 3 Zrotation Yrotation Xrotation
					JOINT RightArm
					{
						OFFSET -2.700000 1.550000 -0.730000
						CHANNELS 3 Zrotation Yrotation Xrotation
						JOINT RightForeArm
						{
							OFFSET -5.450000 0.000000 0.000000
							CHANNELS 3 Zrotation Yrotation Xrotation
							JOINT RightHand
							{
								OFFSET -3.450000 0.000000 0.000000
								CHANNELS 3 Zrotation Yrotation Xrotation
								JOINT RightHandIndex1
								{
									OFFSET -0.750000 0.000000 0.000000
									CHANNELS 3 Zrotation Yrotation Xrotation
									End Site
									{
										OFFSET 0.000000 0.000000 0.000000
									}
								}
							}
						}
					}
				}
			}
		}
	}
}
MOTION
Frames: 10
Frame Time: 0.016667
2.298340 16.107050 -7.791850 16.984928 5.578044 11.703508 -15.668292 10.718045 4.891285 33.889961 0.515406 -44.466759 3.082452 10.923326 41.549488 0.304003 8.207947 1.322795 0.336080 0.278560 0.492230 18.578744 -6.935565 4.734720 -42.674152 1.739879 -39.085214 33.935481 -25.389806 39.232962 -1.507949 -9.801868 0.851475 0.031540 -0.344840 0.139750 -3.313420 -3.667891 -10.057468 13.479622 -14.737638 44.647000 -9.104247 -7.734509 -2.547520 8.208219 -6.396052 -6.288024 -12.407091 7.056589 38.032739 -20.126210 6.923350 -19.624590 -26.169866 5.107133 -1.165834 -39.624827 17.846607 -12.259029 -10.453312 -20.663058 0.090981 -3.443487 2.918687 0.359320 -0.162800 0.337990 -0.073010 9.383673 -1.678939 3.877944 22.479608 -3.595657 -8.434751 -137.499718 66.789894 -129.279924 2.390200 -1.747117 0.111460 0.047620 -0.085500 -0.192150 
2.335120 16.096480 -7.795300 16.785159 6.077382 12.521189 -15.569817 11.367155 4.053482 30.198063 -0.080811 -40.922132 8.284214 7.826967 39.437388 0.237214 7.207413 1.663494 0.305780 0.249540 0.480640 18.565670 -7.139277 5.110869 -44.156656 1.570007 -39.096972 37.500338 -25.375145 36.274070 -1.508112 -9.696119 0.888079 0.001480 -0.355190 0.150500 -3.412138 -3.855983 -9.864688 16.519434 -15.953661 42.312711 -10.188967 -8.054179 -3.669154 9.216480 -4.920092 -6.727230 -9.591746 5.772437 39.511189 -20.681190 7.955230 -17.839070 -28.358976 3.476197 -1.135037 -38.408800 17.891775 -8.740715 -5.955563 -2.254010 -1.141955 -3.636661 2.697414 0.335830 -0.146630 0.336840 -0.081620 9.386894 -1.179996 4.885807 22.583223 -3.564925 -6.991154 -120.506365 62.631465 -100.663093 2.441238 -0.843842 0.125690 0.000510 -0.090060 -0.192910 
2.350680 16.083390 -7.783980 15.852445 6.215582 13.395071 -15.563024 11.934386 3.530685 27.836174 -0.254024 -37.918845 10.579524 6.339494 37.575056 0.262578 6.626132 1.875565 0.259680 0.190010 0.467500 18.475697 -7.201163 5.387680 -44.346355 1.948129 -39.251215 40.561887 -24.950398 33.692932 -1.498856 -9.547330 0.943613 -0.059740 -0.365140 0.169340 -3.283321 -4.282154 -9.799834 18.624536 -16.118174 40.859023 -9.889175 -7.069890 -6.496384 10.328598 -2.950585 -7.101614 -5.576811 3.806631 41.628836 -21.251730 8.901450 -14.685260 -29.693315 3.208636 -1.063988 -37.770293 20.345515 -7.437924 -5.176238 9.797795 -1.408417 -3.786729 2.586380 0.299400 -0.131600 0.334920 -0.086490 8.271970 -1.007196 5.135157 23.820263 -3.457875 -8.169528 -111.749011 55.554588 -76.823360 2.247112 -0.700160 0.152850 -0.067070 -0.101330 -0.185380 
2.397340 16.090740 -7.762540 14.506769 5.700637 15.250601 -15.602549 12.420988 3.223253 25.931246 -0.459753 -35.555298 9.862850 6.197051 36.039507 0.295519 6.265330 2.011739 0.188090 0.114190 0.414910 18.365785 -7.081207 5.620114 -43.997205 2.478248 -40.201887 42.625246 -23.686218 30.956864 -1.428386 -9.266479 1.050786 -0.128630 -0.349030 0.175560 -3.069766 -5.012029 -9.763813 20.793354 -16.163771 38.986117 -8.572785 -5.719461 -9.903476 10.659297 -2.851407 -7.665062 -5.324919 3.151733 42.497769 -22.247640 10.143240 -11.071140 -30.315542 3.576393 -1.242272 -39.033645 23.574610 -7.750706 -4.447801 20.098442 -1.187882 -3.956957 2.545156 0.245470 -0.105270 0.311690 -0.083710 7.997016 0.205521 5.174221 23.503641 -2.756110 -9.208001 -109.503101 42.703894 -57.970805 2.311467 -1.347878 0.170980 -0.120980 -0.094830 -0.162720 
2.432490 16.136410 -7.732050 13.010030 4.934975 17.611236 -15.664309 12.822986 3.099648 23.908105 -0.827677 -34.303057 8.179226 6.441495 34.881058 0.391619 5.985601 2.133369 0.114530 0.035940 0.349410 18.243687 -6.891947 5.797002 -43.049414 3.194957 -41.507582 43.515391 -21.772548 28.271079 -1.313718 -8.876796 1.183994 -0.212480 -0.328410 0.203040 -2.811913 -5.815099 -9.771872 23.411075 -16.053508 37.497673 -7.688454 -3.357386 -14.407364 10.708544 -3.348488 -8.253986 -6.365036 1.507599 42.450031 -23.095560 10.514790 -6.556140 -30.805402 4.634647 -1.715326 -39.540711 27.516626 -8.400038 -1.534314 26.344779 0.081183 -4.095744 2.594313 0.154470 -0.075170 0.283590 -0.069360 8.031094 1.849818 5.406039 22.309896 -2.030201 -9.580981 -110.940606 24.697149 -35.166951 2.513171 -1.888847 0.220190 -0.209940 -0.103210 -0.113540 
2.456850 16.178600 -7.727200 11.782389 3.676406 20.129665 -15.712871 12.945913 3.121498 21.541882 -1.398806 -34.480984 6.131715 7.050333 35.294316 0.485728 6.009263 2.161076 0.016390 -0.079460 0.280660 18.175577 -6.690993 5.989912 -42.444438 3.889136 -43.658998 43.817897 -20.085209 26.335554 -1.196169 -8.556489 1.295078 -0.293540 -0.288760 0.233520 -2.644744 -6.223292 -9.834728 25.352568 -14.987785 36.094417 -7.138148 -0.650882 -17.440522 10.438398 -3.334206 -8.949341 -6.439228 -0.486234 41.294426 -24.064120 11.097860 -2.369350 -29.060860 5.739136 -1.872556 -40.304390 30.255429 -9.443014 1.617435 29.467641 1.543251 -4.247955 2.638097 0.075720 -0.021760 0.239820 -0.069450 6.565340 2.990100 5.865010 22.509187 -1.829865 -9.988730 -113.060710 10.473129 -15.248394 2.697848 -2.183452 0.235290 -0.284680 -0.090290 -0.085580 
2.464750 16.248470 -7.737490 11.035153 2.607689 21.297694 -15.736347 13.044398 3.212180 18.904725 -2.149910 -34.668625 3.776994 7.842832 36.183187 0.572470 6.199391 2.150435 -0.124770 -0.258900 0.186190 18.118462 -6.618483 6.045707 -41.470559 4.677860 -44.674418 42.772366 -18.545209 25.458232 -1.051343 -8.278730 1.379130 -0.384430 -0.227780 0.257330 -2.535272 -6.503595 -9.860683 26.276295 -14.298704 35.332690 -6.596616 1.312792 -18.480614 10.002201 -4.111548 -10.410100 -8.316538 -1.847099 41.354309 -25.553640 11.488310 3.083690 -27.165074 5.025794 -0.957898 -41.513778 32.171151 -10.710146 2.446670 29.673611 1.926316 -4.362634 2.659339 0.016420 0.042900 0.177790 -0.084430 5.470527 6.034522 6.994459 21.549229 -2.825242 -10.903152 -120.411504 0.532976 -0.852613 2.834770 -2.394009 0.210550 -0.338250 -0.046920 -0.068580 
2.474880 16.316670 -7.774780 10.008315 1.829838 21.783140 -15.827243 13.059038 3.487250 17.146945 -2.962105 -35.696102 0.559417 9.318100 38.102675 0.639549 6.736663 1.992817 -0.184870 -0.334660 0.148410 18.025396 -6.447463 5.935387 -39.923487 5.534476 -44.998187 41.369622 -17.207385 24.923311 -0.951864 -7.938681 1.514831 -0.419950 -0.190750 0.235110 -2.287233 -6.989337 -9.906171 26.398155 -13.882321 36.940176 -5.601496 3.068344 -19.747741 9.735224 -4.298773 -11.047827 -8.591689 -1.970632 40.143190 -25.304360 12.458250 3.188370 -23.919898 5.847224 -0.564183 -42.306126 32.885152 -11.591918 1.251091 27.375264 1.314763 -4.385656 2.607102 0.040340 0.056980 0.152530 -0.089300 2.851906 6.702267 7.304879 22.229277 -2.139952 -11.568458 -125.093751 -5.233261 9.904687 2.910777 -2.469965 0.162410 -0.313350 -0.018130 -0.082540 
2.447740 16.390290 -7.815370 9.646266 1.303803 21.397276 -15.840293 12.931693 3.757649 14.873006 -4.054421 -36.381649 -2.657601 10.875099 40.068723 0.768912 7.314914 1.823531 -0.225710 -0.402050 0.166150 17.992010 -6.513569 5.805500 -38.224837 6.014323 -44.927414 39.429924 -16.426466 25.453690 -0.873007 -7.741788 1.559149 -0.450450 -0.211210 0.244870 -2.227885 -6.852967 -9.962415 25.215665 -13.301200 37.409832 -4.145055 3.627589 -18.692464 9.147015 -3.840985 -12.095636 -7.896452 -3.373322 40.983833 -27.630020 12.556900 5.002810 -22.004442 4.349126 0.787834 -43.281334 33.290083 -12.403209 -1.407772 24.699275 0.260391 -4.357637 2.585836 0.039610 0.062810 0.160950 -0.105120 1.963446 8.499636 7.959043 24.955497 -1.135092 -12.369831 -129.874012 -5.140836 9.317731 2.921262 -2.547036 0.147800 -0.338380 -0.025510 -0.093140 
2.401520 16.453820 -7.867250 9.624439 1.255887 19.796803 -15.801887 12.758057 3.977266 12.410673 -5.171757 -36.429797 -5.616388 12.439821 41.985353 0.970408 7.900204 1.648071 -0.228160 -0.398690 0.175710 17.999623 -6.753153 5.585269 -36.200104 6.227129 -43.765021 37.472822 -16.060307 26.487589 -0.817708 -7.666814 1.552676 -0.459070 -0.230930 0.274760 -2.299622 -6.385882 -9.937193 23.034685 -12.240047 37.577009 -1.158266 2.904441 -15.131922 8.096517 -4.525317 -12.874634 -9.489562 -4.051622 41.258595 -29.993760 11.526280 6.738300 -22.446724 1.504816 2.265929 -42.156848 32.799633 -12.436489 -7.311883 22.183570 -1.834525 -4.277944 2.674800 -0.029930 0.074450 0.163550 -0.108000 4.717794 11.153812 8.570505 23.942252 -1.358312 -12.310952 -131.831939 0.834022 -6.288943 2.800811 -2.543094 0.196230 -0.379150 -0.036600 -0.064130 
